<?xml version="1.0" encoding="UTF-8"?>
<svg version="1.1" viewBox="0 0 128 128" xmlns="http://www.w3.org/2000/svg"><g transform="scale(.25)"><rect width="512" height="512" rx="50" fill="#3178c6"/><rect width="512" height="512" rx="50" fill="#3178c6"/><path d="m316.9 407.4v50.06c8.138 4.172 17.76 7.3 28.88 9.386s22.82 3.129 35.14 3.129c12 0 23.4-1.147 34.2-3.442 10.8-2.294 20.27-6.075 28.41-11.34 8.138-5.266 14.58-12.15 19.33-20.65s7.121-19.01 7.121-31.52c0-9.074-1.356-17.03-4.069-23.86s-6.625-12.91-11.74-18.22c-5.112-5.319-11.24-10.09-18.39-14.32s-15.21-8.213-24.18-11.97c-6.573-2.712-12.47-5.345-17.68-7.9-5.217-2.556-9.651-5.163-13.3-7.822-3.652-2.66-6.469-5.476-8.451-8.448-1.982-2.973-2.974-6.336-2.974-10.09 0-3.441 0.887-6.544 2.661-9.308s4.278-5.136 7.512-7.118c3.235-1.981 7.199-3.52 11.89-4.615 4.696-1.095 9.912-1.642 15.65-1.642 4.173 0 8.581 0.313 13.22 0.938 4.643 0.626 9.312 1.591 14.01 2.894 4.695 1.304 9.259 2.947 13.69 4.928 4.434 1.982 8.529 4.276 12.28 6.884v-46.78c-7.616-2.92-15.94-5.084-24.96-6.492s-19.38-2.112-31.07-2.112c-11.9 0-23.16 1.278-33.8 3.833s-20.01 6.544-28.09 11.97c-8.086 5.424-14.48 12.33-19.17 20.73-4.695 8.395-7.043 18.43-7.043 30.11 0 14.91 4.304 27.64 12.91 38.17 8.607 10.53 21.68 19.45 39.2 26.75 6.886 2.816 13.3 5.579 19.25 8.291s11.09 5.528 15.42 8.448c4.33 2.92 7.747 6.101 10.25 9.543 2.504 3.441 3.756 7.352 3.756 11.73 0 3.233-0.783 6.231-2.348 8.995s-3.939 5.162-7.121 7.196-7.147 3.624-11.89 4.771c-4.748 1.148-10.3 1.721-16.67 1.721-10.85 0-21.6-1.903-32.24-5.71-10.64-3.806-20.5-9.516-29.58-17.13zm-84.16-123.3h64.22v-41.08h-179v41.08h63.91v182.9h50.87z" clip-rule="evenodd" fill="#fff" fill-rule="evenodd"/></g><g transform="matrix(2,0,0,2,-42,-52)" fill="#fff"><path d="m27.3 39.92h12.65c3.317 0.4131 5.114 1.765 5.347 3.671-0.3751 1.194-1.589 1.894-3.641 2.102h-5.616c-3.908-1.618-5.824-3.848-8.736-5.772z"/><path d="m78.41 39.92h-12.65c-3.317 0.4131-5.114 1.765-5.347 3.671 0.3751 1.194 1.589 1.894 3.641 2.102h5.616c3.908-1.618 5.824-3.848 8.736-5.772z"/></g></svg>
